<?xml version="1.0" encoding="utf-8"?>
<!-- Generator: Adobe Illustrator 15.0.2, SVG Export Plug-In . SVG Version: 6.00 Build 0)  -->
<!DOCTYPE svg PUBLIC "-//W3C//DTD SVG 1.1//EN" "http://www.w3.org/Graphics/SVG/1.1/DTD/svg11.dtd">
<svg version="1.1" id="Livello_1" xmlns="http://www.w3.org/2000/svg" xmlns:xlink="http://www.w3.org/1999/xlink" x="0px" y="0px"
	 width="1024px" height="1024px" viewBox="0 0 1024 1024" enable-background="new 0 0 1024 1024" xml:space="preserve">
<g>
	<title></title>
	<rect id="canvas_background" x="-1" y="-1" fill="none" width="1026" height="1026"/>
</g>
<g>
	<title></title>
	<g id="svg_1" transform="translate(0,1024) scale(0.10000000149011612,-0.10000000149011612) ">
		<path id="svg_2" fill="#DD4B39" d="M4885.998,9438.996c-1484.004-85-2797.998-906.992-3540.996-2213.994
			c-535-942.001-689.004-2103.007-420-3175c387.002-1540,1605-2758.008,3145-3145c693.994-174.004,1425.996-174.004,2120,0
			c1540,386.992,2757.997,1605,3144.999,3145c173.994,693.994,173.994,1425.996,0,2120
			c-435,1732.001-1909.003,3032.001-3679.999,3243.994C5388,9445.998,5145.998,9453.996,4885.998,9438.996z M6000.002,7400.998
			c0-70-98.008-130-296.006-180.996c-65-17.002-167.002-35-225.996-41.006c-96.006-7.998-157.998-20.996-157.998-32.998
			c0-2.002,20-15.996,42.998-30c248.994-145,347.002-387.001,347.998-858.994c0.996-428.008-97.002-675.01-377.002-952.002
			C5148.996,5123,5080.002,5028,5080.002,4958c0-67.998,52.998-134.004,313.994-392.998C5720.002,4241.995,5828,4101.995,5923,3878
			c55.996-129.004,77.002-237.998,77.002-397.998c0-442.002-155-781.006-463.008-1010
			c-211.992-158.008-540.996-284.004-846.992-326.006c-174.004-22.998-493.008-20.996-643.008,5
			c-218.994,37.998-470,112.998-607.998,181.006c-273.994,135-452.002,396.992-500,738.994
			c-16.992,122.002-6.992,355,21.006,456.006C3033,3798,3210.998,4010.999,3475.002,4143
			c210.996,105,771.992,227.002,1046.992,227.002c32.002,0,58.008,2.998,58.008,5.996s-14.004,25-30,50
			c-94.004,135.996-154.004,322.998-148.008,460l3.008,84.004h-105c-244.004,0-479.004,70.996-675,202.998
			c-215,145.996-343.008,367.002-390,677.002c-20,125.996-19.004,372.998,0,485.996C3293,6668.997,3478,6967.004,3731.994,7138.996
			c219.004,146.006,483.008,250,713.008,280c38.994,4.004,403.994,9.004,812.998,10l742.002,1.006V7400.998z M7421.994,5813
			l3.008-447.998l452.998-3.008l452.002-1.992v-285v-285L7878,4788c-394.004-2.998-452.998-5-454.004-17.998
			c-0.996-8.008-2.002-212.002-2.998-452.002l-0.996-437.998h-285h-285v455v455h-450h-450v285v285h450h450v450v450h285h285
			L7421.994,5813z"/>
		<path id="svg_3" fill="#DD4B39" d="M4270.002,7043.996c-199.004-38.994-355-217.998-404.004-463.994
			c-39.004-190-30.996-411.006,20-588.008c52.998-183.994,147.998-347.998,272.998-471.992
			c236.006-235,516.006-263.008,722.002-73.008C5063.996,5616.995,5163,5943,5118.996,6233
			c-25.996,174.004-108.994,394.004-197.002,524.004c-86.992,126.992-231.992,230.996-376.992,267.998
			C4483,7040.998,4315.002,7052.004,4270.002,7043.996z"/>
		<path id="svg_4" fill="#DD4B39" d="M4375.002,4078.997C4090.998,4043,3763,3841.995,3630.998,3625.002
			c-112.002-185-127.002-411.006-39.004-590c33.008-66.006,98.008-144.004,159.004-191.006
			c265.996-203.994,675-275,1059.004-182.998c182.998,42.998,316.992,115.996,440,239.004c137.998,137.998,190,258.994,190,445.996
			c0,402.998-291.006,690-746.006,734.004C4576.994,4090.999,4470.998,4090.999,4375.002,4078.997z"/>
	</g>
</g>
</svg>
